<svg width="32" height="32" xmlns="http://www.w3.org/2000/svg">

 <title/>
 <g>
  <title>background</title>
  <rect fill="none" id="canvas_background" height="402" width="582" y="-1" x="-1"/>
 </g>
 <g>
  <title>Layer 1</title>
  <path fill="#5e5959" id="svg_1" d="m17,31l-2,0a3,3 0 0 1 -3,-2.64a12.68,12.68 0 0 1 -1.95,-0.8a3,3 0 0 1 -4,-0.25l-1.36,-1.41a3,3 0 0 1 -0.25,-4a12.68,12.68 0 0 1 -0.8,-1.9a3,3 0 0 1 -2.64,-3l0,-2a3,3 0 0 1 2.64,-3a12.68,12.68 0 0 1 0.8,-1.95a3,3 0 0 1 0.25,-4l1.41,-1.36a3,3 0 0 1 4,-0.25a12.68,12.68 0 0 1 1.9,-0.8a3,3 0 0 1 3,-2.64l2,0a3,3 0 0 1 3,2.64a12.68,12.68 0 0 1 1.95,0.8a3,3 0 0 1 4,0.25l1.36,1.41a3,3 0 0 1 0.25,4a12.68,12.68 0 0 1 0.8,1.95a3,3 0 0 1 2.64,2.95l0,2a3,3 0 0 1 -2.64,3a12.68,12.68 0 0 1 -0.8,1.95a3,3 0 0 1 -0.25,4l-1.41,1.36a3,3 0 0 1 -4,0.25a12.68,12.68 0 0 1 -1.95,0.8a3,3 0 0 1 -2.95,2.64zm-7.09,-5.67a0.94,0.94 0 0 1 0.51,0.14a11,11 0 0 0 2.83,1.17a1,1 0 0 1 0.75,1l0,0.36a1,1 0 0 0 1,1l2,0a1,1 0 0 0 1,-1l0,-0.39a1,1 0 0 1 0.75,-1a11,11 0 0 0 2.83,-1.17a1,1 0 0 1 1.21,0.15l0.28,0.28a1,1 0 0 0 1.42,0l1.41,-1.41a1,1 0 0 0 0,-1.42l-0.28,-0.28a1,1 0 0 1 -0.15,-1.21a11,11 0 0 0 1.17,-2.83a1,1 0 0 1 1,-0.75l0.36,0a1,1 0 0 0 1,-1l0,-1.97a1,1 0 0 0 -1,-1l-0.39,0a1,1 0 0 1 -1,-0.75a11,11 0 0 0 -1.17,-2.83a1,1 0 0 1 0.15,-1.21l0.28,-0.28a1,1 0 0 0 0,-1.42l-1.38,-1.41a1,1 0 0 0 -1.42,0l-0.28,0.28a1,1 0 0 1 -1.21,0.15a11,11 0 0 0 -2.83,-1.17a1,1 0 0 1 -0.75,-1l0,-0.36a1,1 0 0 0 -1,-1l-2,0a1,1 0 0 0 -1,1l0,0.39a1,1 0 0 1 -0.75,1a11,11 0 0 0 -2.83,1.17a1,1 0 0 1 -1.21,-0.15l-0.28,-0.31a1,1 0 0 0 -1.42,0l-1.41,1.41a1,1 0 0 0 0,1.42l0.28,0.28a1,1 0 0 1 0.15,1.21a11,11 0 0 0 -1.17,2.83a1,1 0 0 1 -1,0.75l-0.36,0a1,1 0 0 0 -1,1l0,2a1,1 0 0 0 1,1l0.39,0a1,1 0 0 1 1,0.75a11,11 0 0 0 1.17,2.83a1,1 0 0 1 -0.15,1.21l-0.28,0.28a1,1 0 0 0 0,1.42l1.38,1.41a1,1 0 0 0 1.42,0l0.28,-0.28a1,1 0 0 1 0.7,-0.29z" class="cls-1"/>
  <path fill="#5e5959" id="svg_2" d="m16,23a7,7 0 1 1 7,-7a7,7 0 0 1 -7,7zm0,-12a5,5 0 1 0 5,5a5,5 0 0 0 -5,-5z" class="cls-1"/>
 </g>
</svg>